<svg width="16" height="16" viewBox="0 0 16 16" fill="none" xmlns="http://www.w3.org/2000/svg">
<path d="M14.2844 14.3062C15.0377 13.5578 15.5253 12.6209 15.6982 11.5911C15.8968 10.409 16 9.20111 16 8.00096C16 6.80082 15.902 5.6239 15.7059 4.45731C15.3499 2.32286 13.6756 0.650401 11.5421 0.294229C10.3734 0.100657 9.18155 0 8 0C6.81845 0 5.59561 0.100657 4.41406 0.301972C3.40277 0.472315 2.4792 0.94721 1.74137 1.67246L1.71558 1.69569C0.96227 2.44416 0.474686 3.38105 0.301838 4.41085C0.103193 5.59293 0 6.80082 0 8.00096C0 9.20111 0.0980332 10.378 0.294099 11.5446C0.650113 13.6791 2.32441 15.3515 4.45792 15.7077C6.81071 16.1 9.24089 16.0974 11.5834 15.7C12.5946 15.5296 13.5182 15.0547 14.256 14.3269L14.2818 14.3037L14.2844 14.3062ZM13.2009 13.2016L13.1803 13.2197C12.6695 13.7255 12.0297 14.0559 11.328 14.1746C10.2315 14.3604 9.1119 14.4534 8 14.4534C6.8881 14.4534 5.79684 14.363 4.71332 14.1823C3.23251 13.9346 2.07159 12.7731 1.82393 11.2917C1.64334 10.2077 1.55047 9.10045 1.55047 8.00096C1.55047 6.90147 1.64334 5.76585 1.82909 4.66895C1.94776 3.95919 2.28571 3.31395 2.80168 2.80034L2.81716 2.78485C3.32796 2.2764 3.97033 1.94604 4.67204 1.82732C6.8494 1.45824 9.10158 1.45566 11.2867 1.81957C12.7675 2.06734 13.9284 3.22878 14.1761 4.71024C14.3567 5.79424 14.4495 6.90147 14.4495 8.00096C14.4495 9.10045 14.3567 10.2335 14.1709 11.333C14.0522 12.0427 13.7143 12.688 13.1983 13.2016H13.2009Z" fill="#9747FF"/>
<path d="M6.89801 8.63483L5.97156 7.70838C5.82188 7.5587 5.62317 7.48128 5.42446 7.48128C5.22575 7.48128 5.02704 7.55612 4.87737 7.70838C4.73027 7.85548 4.65027 8.04903 4.65027 8.25548C4.65027 8.46193 4.73027 8.65548 4.87737 8.80257L5.80382 9.72903C6.18575 10.111 6.69156 10.32 7.23349 10.32C7.77543 10.32 8.28124 10.111 8.66317 9.72903L11.138 7.25419C11.2851 7.10709 11.3651 6.91354 11.3651 6.70709C11.3651 6.50064 11.2851 6.30709 11.138 6.15999C10.8464 5.86838 10.3354 5.86838 10.0438 6.15999L7.56898 8.63483C7.38833 8.81548 7.08382 8.81548 6.90317 8.63483H6.89801Z" fill="#9747FF"/>
</svg>
