<svg fill="#646cff" xmlns="http://www.w3.org/2000/svg" xmlns:xlink="http://www.w3.org/1999/xlink" version="1.1" x="0px" y="0px" viewBox="0 0 100 100" style="enable-background:new 0 0 100 100;" xml:space="preserve"><g><path d="M28.2,80c0,2.7,2.2,4.9,4.9,4.9h33.8c2.7,0,4.9-2.2,4.9-4.9V28.8H28.2V80z M57.2,38.8c0-0.8,0.7-1.5,1.5-1.5h2.2   c0.8,0,1.5,0.7,1.5,1.5v31c0,0.8-0.7,1.5-1.5,1.5h-2.2c-0.8,0-1.5-0.7-1.5-1.5V38.8z M47.4,38.8c0-0.8,0.7-1.5,1.5-1.5h2.2   c0.8,0,1.5,0.7,1.5,1.5v31c0,0.8-0.7,1.5-1.5,1.5h-2.2c-0.8,0-1.5-0.7-1.5-1.5V38.8z M37.6,38.8c0-0.8,0.7-1.5,1.5-1.5h2.2   c0.8,0,1.5,0.7,1.5,1.5v31c0,0.8-0.7,1.5-1.5,1.5h-2.2c-0.8,0-1.5-0.7-1.5-1.5V38.8z"/><path d="M72.9,19.7H58.6v-0.4c0-1.7-1.4-3.1-3.1-3.1H44.6c-1.7,0-3.1,1.4-3.1,3.1v0.4H27.2c-1.5,0-2.8,1.2-2.8,2.8V24   c0,1.5,1.2,2.8,2.8,2.8h45.6c1.6,0,2.9-1.2,2.9-2.8v-1.5C75.7,21,74.5,19.7,72.9,19.7z"/></g></svg>